<mxfile host="app.diagrams.net" modified="2023-05-28T21:43:10.957Z" agent="Mozilla/5.0 (Windows NT 10.0; Win64; x64) AppleWebKit/537.36 (KHTML, like Gecko) Chrome/112.0.0.0 Safari/537.36 OPR/98.0.0.0" etag="jUxkIRv_P4OlT_RSMemM" version="21.3.5" type="device">
  <diagram name="Página-1" id="LyjNu9qGQ7RmPCvKhD5d">
    <mxGraphModel dx="643" dy="412" grid="1" gridSize="10" guides="1" tooltips="1" connect="1" arrows="1" fold="1" page="1" pageScale="1" pageWidth="827" pageHeight="1169" math="0" shadow="0">
      <root>
        <mxCell id="0" />
        <mxCell id="1" parent="0" />
        <mxCell id="PwCScMqwCmmrr7pHNFw--1" value="Beholder" style="shape=umlActor;verticalLabelPosition=bottom;verticalAlign=top;html=1;outlineConnect=0;" vertex="1" parent="1">
          <mxGeometry x="170" y="210" width="30" height="60" as="geometry" />
        </mxCell>
        <mxCell id="PwCScMqwCmmrr7pHNFw--7" value="Funcionamento na presença de falhas, erros e faltas" style="ellipse;whiteSpace=wrap;html=1;" vertex="1" parent="1">
          <mxGeometry x="260" y="90" width="140" height="60" as="geometry" />
        </mxCell>
        <mxCell id="PwCScMqwCmmrr7pHNFw--8" value="" style="endArrow=classic;html=1;rounded=0;entryX=0.02;entryY=0.769;entryDx=0;entryDy=0;entryPerimeter=0;" edge="1" parent="1" target="PwCScMqwCmmrr7pHNFw--7">
          <mxGeometry width="50" height="50" relative="1" as="geometry">
            <mxPoint x="200" y="230" as="sourcePoint" />
            <mxPoint x="370" y="240" as="targetPoint" />
          </mxGeometry>
        </mxCell>
        <mxCell id="PwCScMqwCmmrr7pHNFw--9" value="Execução em um agrupamento distribuído" style="ellipse;whiteSpace=wrap;html=1;" vertex="1" parent="1">
          <mxGeometry x="270" y="160" width="120" height="60" as="geometry" />
        </mxCell>
        <mxCell id="PwCScMqwCmmrr7pHNFw--10" value="" style="endArrow=classic;html=1;rounded=0;entryX=-0.032;entryY=0.619;entryDx=0;entryDy=0;entryPerimeter=0;exitX=1;exitY=0.3333333333333333;exitDx=0;exitDy=0;exitPerimeter=0;" edge="1" parent="1" source="PwCScMqwCmmrr7pHNFw--1" target="PwCScMqwCmmrr7pHNFw--9">
          <mxGeometry width="50" height="50" relative="1" as="geometry">
            <mxPoint x="200" y="210" as="sourcePoint" />
            <mxPoint x="260" y="240" as="targetPoint" />
          </mxGeometry>
        </mxCell>
        <mxCell id="PwCScMqwCmmrr7pHNFw--11" value="Redundância de dados armazenados" style="ellipse;whiteSpace=wrap;html=1;" vertex="1" parent="1">
          <mxGeometry x="275" y="230" width="110" height="70" as="geometry" />
        </mxCell>
        <mxCell id="PwCScMqwCmmrr7pHNFw--12" value="" style="endArrow=classic;html=1;rounded=0;entryX=-0.005;entryY=0.317;entryDx=0;entryDy=0;exitX=1;exitY=0.3333333333333333;exitDx=0;exitDy=0;exitPerimeter=0;entryPerimeter=0;" edge="1" parent="1" source="PwCScMqwCmmrr7pHNFw--1" target="PwCScMqwCmmrr7pHNFw--11">
          <mxGeometry width="50" height="50" relative="1" as="geometry">
            <mxPoint x="320" y="290" as="sourcePoint" />
            <mxPoint x="370" y="240" as="targetPoint" />
          </mxGeometry>
        </mxCell>
        <mxCell id="PwCScMqwCmmrr7pHNFw--13" value="Distribuição e tabelamento de memória" style="ellipse;whiteSpace=wrap;html=1;" vertex="1" parent="1">
          <mxGeometry x="275" y="310" width="110" height="70" as="geometry" />
        </mxCell>
        <mxCell id="PwCScMqwCmmrr7pHNFw--14" value="" style="endArrow=classic;html=1;rounded=0;entryX=0.048;entryY=0.198;entryDx=0;entryDy=0;entryPerimeter=0;" edge="1" parent="1" target="PwCScMqwCmmrr7pHNFw--13">
          <mxGeometry width="50" height="50" relative="1" as="geometry">
            <mxPoint x="200" y="230" as="sourcePoint" />
            <mxPoint x="370" y="240" as="targetPoint" />
          </mxGeometry>
        </mxCell>
      </root>
    </mxGraphModel>
  </diagram>
</mxfile>
